<?xml version="1.0" encoding="utf-8"?>
<svg xmlns="http://www.w3.org/2000/svg" viewBox="0 0 500 500" width="500px" height="500px"><path d="M 250 0 C 111.938 0 0 111.938 0 250 C 0 388.063 111.938 500 250 500 C 388.063 500 500 388.063 500 250 C 500 111.938 388.063 0 250 0 Z M 250 38.459 C 366.563 38.605 461 133.146 461 249.73 C 461 366.417 366.417 461 249.729 461 C 133.042 461 38.459 366.417 38.459 249.73 C 38.459 191.396 62.104 138.584 100.334 100.355 C 138.604 62.125 191.459 38.48 249.834 38.48 L 249.979 38.48 L 250 38.459 Z M 250 96.167 C 158.5 112.292 76.917 196.667 76.917 288.459 C 121.688 209.417 151.584 203.73 159.854 203.73 C 168.125 203.73 172.479 208.021 172.479 217.542 L 172.479 335.334 C 172.479 349.98 144.021 347.584 134.604 346.146 C 169.396 397.917 250 403.855 250 403.855 L 288.459 365.396 L 326.917 384.625 C 387.625 356.834 423.063 297.334 423.063 288.48 C 408.459 306.563 388.771 320.042 366.167 326.73 L 365.354 326.938 C 360.25 326.938 346.125 324.313 346.125 317.313 L 346.125 177.875 C 346.125 165.771 374.084 128.834 384.584 115.375 C 315.167 133.563 295.042 165.25 295.042 165.25 C 295.042 165.25 289.771 153.834 269.209 153.834 C 279.646 163.688 286.667 177.042 288.417 192 L 288.438 192.292 L 288.438 310.084 C 277.5 317.855 264.604 323.688 250.667 326.771 L 249.959 326.896 C 236.625 326.896 230.125 321.48 230.125 311.271 C 230.125 301.063 230.729 173.063 230.729 173.063 C 230.729 173.063 211.5 180.125 211.5 140.605 C 211.5 120.834 249.959 96.125 249.959 96.125 L 250 96.167 Z" style="stroke: rgb(186, 218, 85); fill: rgb(255, 255, 255);" id="object-0" transform="matrix(1, 0, 0, 1, -7.105427357601002e-15, 0)"/></svg>