<?xml version="1.0" encoding="utf-8"?>
<svg xmlns="http://www.w3.org/2000/svg" viewBox="0 0 500 500" width="500px" height="500px"><path d="M 415.708 401.057 L 325.981 250.017 L 415.708 98.91 L 459.021 249.983 L 415.691 401.024 L 415.708 401.057 Z M 215.748 386.553 L 102.914 274.573 L 282.285 274.573 L 371.978 425.63 L 215.731 386.586 L 215.748 386.553 Z M 215.748 113.447 L 371.978 74.403 L 282.301 225.46 L 102.898 225.46 L 215.748 113.447 Z M 500 198.603 L 445.283 0 L 241.039 53.231 L 210.83 105.111 L 149.478 104.661 L 0 250.017 L 149.495 395.389 L 210.813 394.905 L 241.106 446.786 L 445.267 500 L 500 301.48 L 468.924 250.017 L 500 198.603 Z" style="fill: rgb(255, 255, 255);" id="object-0" transform="matrix(1, 0, 0, 1, -7.105427357601002e-15, 0)"/></svg>